<svg width="31" height="31" viewBox="0 0 31 31" fill="none" xmlns="http://www.w3.org/2000/svg">
<path d="M28.7 15.8125C28.7 14.8375 28.6125 13.9 28.45 13H15.5V18.3187H22.9C22.5813 20.0375 21.6125 21.4938 20.1563 22.4688V25.9187H24.6C27.2 23.525 28.7 20 28.7 15.8125Z" fill="#4285F4"/>
<path d="M15.5004 29.25C19.2129 29.25 22.3254 28.0188 24.6004 25.9188L20.1566 22.4688C18.9254 23.2938 17.3504 23.7813 15.5004 23.7813C11.9191 23.7813 8.88789 21.3625 7.80664 18.1125H3.21289V21.675C5.47539 26.1688 10.1254 29.25 15.5004 29.25Z" fill="#34A853"/>
<path d="M7.80625 18.1125C7.53125 17.2875 7.375 16.4062 7.375 15.5C7.375 14.5937 7.53125 13.7125 7.80625 12.8875V9.32495H3.2125C2.25 11.241 1.74915 13.3557 1.75 15.5C1.75 17.7187 2.28125 19.8187 3.2125 21.675L7.80625 18.1125Z" fill="#FBBC05"/>
<path d="M15.5004 7.21875C17.5191 7.21875 19.3316 7.9125 20.7566 9.275L24.7004 5.33125C22.3191 3.1125 19.2066 1.75 15.5004 1.75C10.1254 1.75 5.47539 4.83125 3.21289 9.325L7.80664 12.8875C8.88789 9.6375 11.9191 7.21875 15.5004 7.21875Z" fill="#EA4335"/>
</svg>
