<svg width="122" height="115" viewBox="0 0 122 115" fill="none" xmlns="http://www.w3.org/2000/svg">
<path d="M61.5 42.5L99.5 23.5V66.5L61.5 88L24 67.5V23.5L61.5 42.5Z" fill="#041634"/>
<path d="M61.5 42.5L99.5 23.5V66.5L61.5 88M61.5 42.5V88M61.5 42.5L24 23.5V67.5L61.5 88" stroke="#041634"/>
<path d="M61.5 1.5L24.5 23.5L61.5 43.5L98.5 23.5L61.5 1.5Z" fill="#041634" stroke="#041634"/>
<path d="M43.1295 84.9881C42.2368 83.6874 40.4586 83.3566 39.1579 84.2493C37.8571 85.1421 37.5264 86.9202 38.4191 88.2209C39.3118 89.5217 41.09 89.8524 42.3907 88.9597C43.6915 88.067 44.0222 86.2888 43.1295 84.9881ZM48.275 80.8069L40.4712 86.1629L41.0774 87.0461L48.8812 81.6901L48.275 80.8069Z" fill="url(#paint0_linear_7573_1474)"/>
<path d="M30.8853 77.6517C29.9926 76.3509 28.2145 76.0202 26.9137 76.9129C25.613 77.8056 25.2823 79.5838 26.175 80.8845C27.0677 82.1852 28.8459 82.516 30.1466 81.6233C31.4473 80.7305 31.7781 78.9524 30.8853 77.6517ZM36.0309 73.4705L28.2271 78.8265L28.8332 79.7097L36.6371 74.3537L36.0309 73.4705Z" fill="url(#paint1_linear_7573_1474)"/>
<path d="M19.565 72.1336C18.6723 70.8329 16.8942 70.5021 15.5934 71.3948C14.2927 72.2876 13.9619 74.0657 14.8547 75.3664C15.7474 76.6672 17.5255 76.9979 18.8263 76.1052C20.127 75.2125 20.4578 73.4343 19.565 72.1336ZM24.7106 67.9524L16.9068 73.3084L17.5129 74.1916L25.3168 68.8356L24.7106 67.9524Z" fill="url(#paint2_linear_7573_1474)"/>
<path d="M103.946 72.1826C102.842 73.3093 102.86 75.1178 103.986 76.2221C105.113 77.3265 106.921 77.3084 108.026 76.1818C109.13 75.0552 109.112 73.2466 107.985 72.1423C106.859 71.0379 105.05 71.056 103.946 72.1826ZM98.8516 67.9391L105.611 74.5647L106.361 73.7997L99.6015 67.1742L98.8516 67.9391Z" fill="url(#paint3_linear_7573_1474)"/>
<path d="M93.2311 78.5386C92.1267 79.6652 92.1448 81.4738 93.2714 82.5781C94.3981 83.6824 96.2066 83.6644 97.311 82.5377C98.4153 81.4111 98.3972 79.6026 97.2706 78.4982C96.144 77.3939 94.3354 77.4119 93.2311 78.5386ZM88.1368 74.2951L94.8961 80.9207L95.6459 80.1557L88.8866 73.5301L88.1368 74.2951Z" fill="url(#paint4_linear_7573_1474)"/>
<path d="M81.4498 84.9658C80.3455 86.0925 80.3635 87.901 81.4902 89.0054C82.6168 90.1097 84.4254 90.0916 85.5297 88.965C86.634 87.8384 86.616 86.0298 85.4893 84.9255C84.3627 83.8211 82.5542 83.8392 81.4498 84.9658ZM76.3555 80.7223L83.1148 87.3479L83.8647 86.5829L77.1054 79.9574L76.3555 80.7223Z" fill="url(#paint5_linear_7573_1474)"/>
<path d="M18.739 20.7371C17.8807 22.2454 15.9623 22.7723 14.454 21.914C12.9457 21.0557 12.4188 19.1372 13.2771 17.629C14.1354 16.1207 16.0539 15.5938 17.5621 16.4521C19.0704 17.3104 19.5973 19.2288 18.739 20.7371ZM23.943 24.3763L15.7167 19.6951L16.2994 18.671L24.5258 23.3522L23.943 24.3763Z" fill="url(#paint6_linear_7573_1474)"/>
<path d="M19.6737 43.9945C18.7527 45.2754 16.9677 45.5671 15.6868 44.6461C14.406 43.7251 14.1143 41.9401 15.0353 40.6592C15.9563 39.3784 17.7412 39.0867 19.0221 40.0077C20.303 40.9287 20.5947 42.7136 19.6737 43.9945ZM24.7264 48.2874L17.0418 42.7617L17.6671 41.892L25.3517 47.4177L24.7264 48.2874Z" fill="url(#paint7_linear_7573_1474)"/>
<path d="M103.248 20.0723C102.22 18.6743 102.52 16.7075 103.918 15.6794C105.316 14.6512 107.282 14.951 108.311 16.349C109.339 17.7471 109.039 19.7138 107.641 20.742C106.243 21.7701 104.276 21.4703 103.248 20.0723ZM97.8052 23.3437L105.43 17.7361L106.128 18.6853L98.5034 24.293L97.8052 23.3437Z" fill="url(#paint8_linear_7573_1474)"/>
<path d="M103.127 45.077C102.488 43.6348 103.139 41.9473 104.581 41.3079C106.023 40.6685 107.711 41.3193 108.35 42.7616C108.99 44.2038 108.339 45.8913 106.896 46.5307C105.454 47.1701 103.767 46.5192 103.127 45.077ZM96.8689 47.2657L105.522 43.4296L105.956 44.4089L97.303 48.245L96.8689 47.2657Z" fill="url(#paint9_linear_7573_1474)"/>
<path d="M23.1738 22.4951L61.7381 0.000219905L61.7381 4.28517L26.3901 24.6377L23.1738 22.4951Z" fill="url(#paint10_linear_7573_1474)"/>
<path d="M61.7387 0L100.302 22.4951L98.1594 24.6375L61.2031 4.28478L61.7387 0Z" fill="url(#paint11_linear_7573_1474)"/>
<path d="M42.9922 29.9937L62.2737 19.2817V23.0309L46.2058 32.1361L42.9922 29.9937Z" fill="url(#paint12_linear_7573_1474)"/>
<path d="M77.8051 32.1359L61.7379 23.4927L61.7379 19.2816L80.484 29.9935L77.8051 32.1359Z" fill="url(#paint13_linear_7573_1474)"/>
<path d="M77.1414 18.7832C76.4324 17.3739 74.7152 16.8061 73.3059 17.5151C71.8965 18.2241 71.3288 19.9413 72.0378 21.3506C72.7467 22.76 74.464 23.3277 75.8733 22.6187C77.2826 21.9098 77.8504 20.1925 77.1414 18.7832ZM82.2984 15.5894L74.3489 19.5885L74.8303 20.5454L82.7798 16.5463L82.2984 15.5894Z" fill="url(#paint14_linear_7573_1474)"/>
<path d="M47.335 19.1903C46.5953 20.5838 47.1253 22.313 48.5188 23.0527C49.9122 23.7923 51.6415 23.2623 52.3812 21.8689C53.1208 20.4754 52.5908 18.7461 51.1973 18.0065C49.8039 17.2668 48.0746 17.7968 47.335 19.1903ZM41.7469 16.8305L49.6069 21.0027L50.1092 20.0565L42.2492 15.8843L41.7469 16.8305Z" fill="url(#paint15_linear_7573_1474)"/>
<path d="M25.3162 23.5663L45.6689 35.3495V40.1698H47.8113V35.3495L61.7368 43.3834V78.7328V81.9464V89.4448L23.1738 67.4853V61.0581L61.7368 81.9464V78.7328L23.1738 56.7734V52.4886L39.7774 61.0581V58.3801L23.1738 50.3462V45.5258L34.4214 51.4174V48.2038L23.1738 42.3122V35.3495L51.0249 50.3462V48.2038L23.1738 32.6715V22.4951L25.3162 23.5663Z" fill="url(#paint16_linear_7573_1474)"/>
<path d="M98.1564 23.5663L77.8037 35.3495V40.1698H75.6613V35.3495L61.7358 43.3834V78.7328V81.9464V89.4448L100.299 67.4853V61.0581L61.7358 81.9464V78.7328L100.299 56.7734V52.4886L83.6953 61.0581V58.3801L100.299 50.3462V45.5258L89.0513 51.4174V48.2038L100.299 42.3122V35.3495L72.4478 50.3462V48.2038L100.299 32.6715V22.4951L98.1564 23.5663Z" fill="url(#paint17_linear_7573_1474)"/>
<circle cx="61.2019" cy="56.2381" r="8.03396" fill="#041634"/>
<path d="M1.72646 110.383V99.7796H6.31615C7.26539 99.7796 8.08336 99.9361 8.77004 100.249C9.45673 100.552 9.98689 100.991 10.3605 101.567C10.7342 102.143 10.921 102.829 10.921 103.627C10.921 104.415 10.7342 105.096 10.3605 105.672C9.98689 106.237 9.45673 106.672 8.77004 106.975C8.08336 107.278 7.26539 107.429 6.31615 107.429H3.08973L4.18035 106.354V110.383H1.72646ZM8.46709 110.383L5.81628 106.535H8.4368L11.1179 110.383H8.46709ZM4.18035 106.626L3.08973 105.475H6.17982C6.9372 105.475 7.5027 105.313 7.87634 104.99C8.24998 104.657 8.4368 104.203 8.4368 103.627C8.4368 103.041 8.24998 102.587 7.87634 102.264C7.5027 101.941 6.9372 101.779 6.17982 101.779H3.08973L4.18035 100.613V106.626ZM16.5763 110.504C15.7079 110.504 14.9353 110.322 14.2588 109.959C13.5923 109.595 13.0621 109.1 12.6683 108.474C12.2845 107.838 12.0927 107.116 12.0927 106.308C12.0927 105.49 12.2845 104.768 12.6683 104.142C13.0621 103.506 13.5923 103.011 14.2588 102.658C14.9353 102.294 15.7079 102.112 16.5763 102.112C17.4347 102.112 18.2022 102.294 18.8787 102.658C19.5553 103.011 20.0855 103.501 20.4692 104.127C20.853 104.753 21.0448 105.48 21.0448 106.308C21.0448 107.116 20.853 107.838 20.4692 108.474C20.0855 109.1 19.5553 109.595 18.8787 109.959C18.2022 110.322 17.4347 110.504 16.5763 110.504ZM16.5763 108.565C16.9702 108.565 17.3236 108.474 17.6366 108.292C17.9497 108.111 18.1971 107.853 18.3789 107.52C18.5606 107.177 18.6515 106.773 18.6515 106.308C18.6515 105.834 18.5606 105.43 18.3789 105.096C18.1971 104.763 17.9497 104.506 17.6366 104.324C17.3236 104.142 16.9702 104.051 16.5763 104.051C16.1825 104.051 15.829 104.142 15.516 104.324C15.203 104.506 14.9505 104.763 14.7586 105.096C14.5769 105.43 14.486 105.834 14.486 106.308C14.486 106.773 14.5769 107.177 14.7586 107.52C14.9505 107.853 15.203 108.111 15.516 108.292C15.829 108.474 16.1825 108.565 16.5763 108.565ZM24.614 110.383L21.1906 102.233H23.6294L26.4771 109.247H25.2653L28.2191 102.233H30.4912L27.0527 110.383H24.614ZM35.2779 110.504C34.3489 110.504 33.5309 110.322 32.824 109.959C32.1272 109.595 31.587 109.1 31.2032 108.474C30.8195 107.838 30.6276 107.116 30.6276 106.308C30.6276 105.49 30.8144 104.768 31.1881 104.142C31.5718 103.506 32.0919 103.011 32.7483 102.658C33.4047 102.294 34.1469 102.112 34.975 102.112C35.7727 102.112 36.4897 102.284 37.1259 102.627C37.7722 102.961 38.2822 103.445 38.6558 104.081C39.0294 104.708 39.2163 105.46 39.2163 106.338C39.2163 106.429 39.2112 106.535 39.2011 106.657C39.191 106.768 39.1809 106.874 39.1708 106.975H32.5514V105.596H37.9287L37.0199 106.005C37.0199 105.581 36.934 105.212 36.7624 104.899C36.5907 104.586 36.3534 104.344 36.0504 104.172C35.7475 103.991 35.394 103.9 34.9901 103.9C34.5862 103.9 34.2277 103.991 33.9146 104.172C33.6117 104.344 33.3744 104.591 33.2027 104.915C33.031 105.228 32.9452 105.601 32.9452 106.035V106.399C32.9452 106.843 33.0411 107.237 33.233 107.581C33.435 107.914 33.7127 108.171 34.0661 108.353C34.4296 108.525 34.8538 108.611 35.3385 108.611C35.7727 108.611 36.1514 108.545 36.4746 108.414C36.8078 108.282 37.1108 108.085 37.3834 107.823L38.6407 109.186C38.267 109.61 37.7974 109.938 37.2319 110.171C36.6664 110.393 36.0151 110.504 35.2779 110.504ZM40.7895 110.383V99.1434H43.1525V110.383H40.7895ZM48.9961 110.565C48.1478 110.565 47.3349 110.454 46.5573 110.231C45.7798 109.999 45.1537 109.701 44.6791 109.338L45.5122 107.49C45.9666 107.813 46.5018 108.08 47.1178 108.292C47.7439 108.494 48.375 108.595 49.0112 108.595C49.496 108.595 49.8847 108.55 50.1776 108.459C50.4805 108.358 50.7027 108.222 50.8441 108.05C50.9855 107.878 51.0561 107.682 51.0561 107.459C51.0561 107.177 50.9451 106.954 50.7229 106.793C50.5007 106.621 50.2079 106.485 49.8443 106.384C49.4808 106.273 49.0769 106.172 48.6325 106.081C48.1983 105.98 47.759 105.859 47.3147 105.717C46.8805 105.576 46.4816 105.394 46.1181 105.172C45.7545 104.95 45.4566 104.657 45.2244 104.294C45.0022 103.93 44.8911 103.465 44.8911 102.9C44.8911 102.294 45.0527 101.744 45.3758 101.249C45.7091 100.744 46.2039 100.345 46.8603 100.052C47.5268 99.7493 48.3599 99.5978 49.3596 99.5978C50.0261 99.5978 50.6825 99.6786 51.3288 99.8402C51.9751 99.9916 52.5457 100.224 53.0405 100.537L52.2831 102.4C51.7883 102.117 51.2935 101.91 50.7986 101.779C50.3038 101.638 49.8191 101.567 49.3445 101.567C48.8699 101.567 48.4811 101.623 48.1781 101.734C47.8752 101.845 47.6581 101.991 47.5268 102.173C47.3955 102.345 47.3299 102.547 47.3299 102.779C47.3299 103.051 47.4409 103.274 47.6631 103.445C47.8853 103.607 48.1781 103.738 48.5417 103.839C48.9052 103.94 49.3041 104.041 49.7383 104.142C50.1826 104.243 50.6219 104.359 51.0561 104.49C51.5005 104.622 51.9044 104.798 52.2679 105.021C52.6315 105.243 52.9243 105.536 53.1465 105.899C53.3788 106.263 53.4949 106.722 53.4949 107.278C53.4949 107.873 53.3283 108.419 52.995 108.914C52.6618 109.408 52.1619 109.807 51.4954 110.11C50.839 110.413 50.0059 110.565 48.9961 110.565ZM58.4435 110.504C57.7669 110.504 57.161 110.373 56.6258 110.11C56.1007 109.848 55.6917 109.449 55.3989 108.914C55.106 108.368 54.9596 107.676 54.9596 106.838V102.233H57.3226V106.49C57.3226 107.166 57.464 107.666 57.7467 107.99C58.0396 108.303 58.4486 108.459 58.9737 108.459C59.3372 108.459 59.6604 108.383 59.9431 108.232C60.2259 108.07 60.448 107.828 60.6096 107.505C60.7712 107.172 60.852 106.758 60.852 106.263V102.233H63.215V110.383H60.9731V108.141L61.3821 108.792C61.1095 109.358 60.7055 109.787 60.1703 110.08C59.6452 110.363 59.0696 110.504 58.4435 110.504ZM70.221 110.504C69.5041 110.504 68.8881 110.353 68.373 110.05C67.858 109.747 67.4642 109.287 67.1915 108.671C66.9189 108.045 66.7826 107.257 66.7826 106.308C66.7826 105.349 66.9239 104.561 67.2067 103.945C67.4995 103.329 67.9035 102.87 68.4185 102.567C68.9335 102.264 69.5343 102.112 70.221 102.112C70.9885 102.112 71.6752 102.284 72.2811 102.627C72.8971 102.971 73.3818 103.455 73.7353 104.081C74.0988 104.708 74.2806 105.45 74.2806 106.308C74.2806 107.156 74.0988 107.894 73.7353 108.52C73.3818 109.146 72.8971 109.636 72.2811 109.989C71.6752 110.332 70.9885 110.504 70.221 110.504ZM65.4041 110.383V99.1434H67.7671V103.885L67.6157 106.293L67.6611 108.717V110.383H65.4041ZM69.8121 108.565C70.2059 108.565 70.5543 108.474 70.8572 108.292C71.1703 108.111 71.4177 107.853 71.5995 107.52C71.7913 107.177 71.8873 106.773 71.8873 106.308C71.8873 105.834 71.7913 105.43 71.5995 105.096C71.4177 104.763 71.1703 104.506 70.8572 104.324C70.5543 104.142 70.2059 104.051 69.8121 104.051C69.4182 104.051 69.0648 104.142 68.7517 104.324C68.4387 104.506 68.1913 104.763 68.0095 105.096C67.8277 105.43 67.7368 105.834 67.7368 106.308C67.7368 106.773 67.8277 107.177 68.0095 107.52C68.1913 107.853 68.4387 108.111 68.7517 108.292C69.0648 108.474 69.4182 108.565 69.8121 108.565ZM80.3188 110.383V99.7796H84.9085C85.8578 99.7796 86.6757 99.9361 87.3624 100.249C88.0491 100.552 88.5793 100.991 88.9529 101.567C89.3265 102.143 89.5134 102.829 89.5134 103.627C89.5134 104.415 89.3265 105.096 88.9529 105.672C88.5793 106.248 88.0491 106.692 87.3624 107.005C86.6757 107.308 85.8578 107.459 84.9085 107.459H81.6821L82.7727 106.354V110.383H80.3188ZM82.7727 106.626L81.6821 105.46H84.7722C85.5296 105.46 86.0951 105.298 86.4687 104.975C86.8424 104.652 87.0292 104.203 87.0292 103.627C87.0292 103.041 86.8424 102.587 86.4687 102.264C86.0951 101.941 85.5296 101.779 84.7722 101.779H81.6821L82.7727 100.613V106.626ZM94.9616 110.504C94.0932 110.504 93.3206 110.322 92.6441 109.959C91.9776 109.595 91.4474 109.1 91.0536 108.474C90.6698 107.838 90.478 107.116 90.478 106.308C90.478 105.49 90.6698 104.768 91.0536 104.142C91.4474 103.506 91.9776 103.011 92.6441 102.658C93.3206 102.294 94.0932 102.112 94.9616 102.112C95.82 102.112 96.5874 102.294 97.264 102.658C97.9406 103.011 98.4708 103.501 98.8545 104.127C99.2383 104.753 99.4301 105.48 99.4301 106.308C99.4301 107.116 99.2383 107.838 98.8545 108.474C98.4708 109.1 97.9406 109.595 97.264 109.959C96.5874 110.322 95.82 110.504 94.9616 110.504ZM94.9616 108.565C95.3555 108.565 95.7089 108.474 96.0219 108.292C96.335 108.111 96.5824 107.853 96.7642 107.52C96.9459 107.177 97.0368 106.773 97.0368 106.308C97.0368 105.834 96.9459 105.43 96.7642 105.096C96.5824 104.763 96.335 104.506 96.0219 104.324C95.7089 104.142 95.3555 104.051 94.9616 104.051C94.5678 104.051 94.2143 104.142 93.9013 104.324C93.5882 104.506 93.3358 104.763 93.1439 105.096C92.9621 105.43 92.8713 105.834 92.8713 106.308C92.8713 106.773 92.9621 107.177 93.1439 107.52C93.3358 107.853 93.5882 108.111 93.9013 108.292C94.2143 108.474 94.5678 108.565 94.9616 108.565ZM101.01 110.383V102.233H103.373V110.383H101.01ZM102.191 101.097C101.757 101.097 101.403 100.971 101.131 100.719C100.858 100.466 100.722 100.153 100.722 99.7796C100.722 99.4059 100.858 99.0929 101.131 98.8404C101.403 98.588 101.757 98.4617 102.191 98.4617C102.625 98.4617 102.979 98.5829 103.251 98.8253C103.524 99.0575 103.66 99.3605 103.66 99.7341C103.66 100.128 103.524 100.456 103.251 100.719C102.989 100.971 102.635 101.097 102.191 101.097ZM110.519 102.112C111.165 102.112 111.741 102.244 112.246 102.506C112.761 102.759 113.165 103.152 113.458 103.688C113.75 104.213 113.897 104.889 113.897 105.717V110.383H111.534V106.081C111.534 105.425 111.387 104.94 111.095 104.627C110.812 104.314 110.408 104.157 109.883 104.157C109.509 104.157 109.171 104.238 108.868 104.4C108.575 104.551 108.343 104.788 108.171 105.111C108.009 105.435 107.929 105.849 107.929 106.354V110.383H105.566V102.233H107.823V104.49L107.399 103.809C107.691 103.263 108.11 102.844 108.656 102.552C109.201 102.259 109.822 102.112 110.519 102.112ZM119.371 110.504C118.412 110.504 117.665 110.262 117.129 109.777C116.594 109.282 116.327 108.55 116.327 107.581V100.431H118.69V107.55C118.69 107.894 118.78 108.161 118.962 108.353C119.144 108.535 119.391 108.626 119.704 108.626C120.078 108.626 120.396 108.525 120.659 108.323L121.295 109.989C121.053 110.161 120.76 110.292 120.416 110.383C120.083 110.464 119.735 110.504 119.371 110.504ZM115.069 104.233V102.415H120.719V104.233H115.069Z" fill="#061F3C"/>
<defs>
<linearGradient id="paint0_linear_7573_1474" x1="44.6762" y1="83.9265" x2="44.1103" y2="83.102" gradientUnits="userSpaceOnUse">
<stop stop-color="#1260BA"/>
<stop offset="1" stop-color="#B0D1F7"/>
</linearGradient>
<linearGradient id="paint1_linear_7573_1474" x1="32.4321" y1="76.5901" x2="31.8662" y2="75.7656" gradientUnits="userSpaceOnUse">
<stop stop-color="#1260BA"/>
<stop offset="1" stop-color="#B0D1F7"/>
</linearGradient>
<linearGradient id="paint2_linear_7573_1474" x1="21.1118" y1="71.072" x2="20.5459" y2="70.2475" gradientUnits="userSpaceOnUse">
<stop stop-color="#1260BA"/>
<stop offset="1" stop-color="#B0D1F7"/>
</linearGradient>
<linearGradient id="paint3_linear_7573_1474" x1="102.606" y1="70.8694" x2="101.906" y2="71.5836" gradientUnits="userSpaceOnUse">
<stop stop-color="#1260BA"/>
<stop offset="1" stop-color="#B0D1F7"/>
</linearGradient>
<linearGradient id="paint4_linear_7573_1474" x1="91.8914" y1="77.2254" x2="91.1914" y2="77.9395" gradientUnits="userSpaceOnUse">
<stop stop-color="#1260BA"/>
<stop offset="1" stop-color="#B0D1F7"/>
</linearGradient>
<linearGradient id="paint5_linear_7573_1474" x1="80.1101" y1="83.6526" x2="79.4101" y2="84.3668" gradientUnits="userSpaceOnUse">
<stop stop-color="#1260BA"/>
<stop offset="1" stop-color="#B0D1F7"/>
</linearGradient>
<linearGradient id="paint6_linear_7573_1474" x1="20.1212" y1="21.5236" x2="19.6266" y2="22.3928" gradientUnits="userSpaceOnUse">
<stop stop-color="#1260BA"/>
<stop offset="1" stop-color="#B0D1F7"/>
</linearGradient>
<linearGradient id="paint7_linear_7573_1474" x1="21.1968" y1="45.0897" x2="20.613" y2="45.9016" gradientUnits="userSpaceOnUse">
<stop stop-color="#1260BA"/>
<stop offset="1" stop-color="#B0D1F7"/>
</linearGradient>
<linearGradient id="paint8_linear_7573_1474" x1="101.967" y1="21.0145" x2="101.374" y2="20.2089" gradientUnits="userSpaceOnUse">
<stop stop-color="#1260BA"/>
<stop offset="1" stop-color="#B0D1F7"/>
</linearGradient>
<linearGradient id="paint9_linear_7573_1474" x1="101.412" y1="45.8373" x2="101.007" y2="44.9231" gradientUnits="userSpaceOnUse">
<stop stop-color="#1260BA"/>
<stop offset="1" stop-color="#B0D1F7"/>
</linearGradient>
<linearGradient id="paint10_linear_7573_1474" x1="40.9452" y1="6.08629" x2="44.7981" y2="19.2497" gradientUnits="userSpaceOnUse">
<stop stop-color="#1260BA"/>
<stop offset="1" stop-color="#B0D1F7"/>
</linearGradient>
<linearGradient id="paint11_linear_7573_1474" x1="80.7941" y1="12.3187" x2="80.7349" y2="24.6374" gradientUnits="userSpaceOnUse">
<stop stop-color="#057CC3"/>
<stop offset="1" stop-color="#055381"/>
</linearGradient>
<linearGradient id="paint12_linear_7573_1474" x1="52.6535" y1="25.7089" x2="52.6208" y2="32.136" gradientUnits="userSpaceOnUse">
<stop stop-color="#057CC3"/>
<stop offset="1" stop-color="#055381"/>
</linearGradient>
<linearGradient id="paint13_linear_7573_1474" x1="65.4631" y1="28.7573" x2="74.8896" y2="22.0872" gradientUnits="userSpaceOnUse">
<stop stop-color="#1260BA"/>
<stop offset="1" stop-color="#B0D1F7"/>
</linearGradient>
<linearGradient id="paint14_linear_7573_1474" x1="78.5643" y1="18.0674" x2="78.1149" y2="17.1741" gradientUnits="userSpaceOnUse">
<stop stop-color="#1260BA"/>
<stop offset="1" stop-color="#B0D1F7"/>
</linearGradient>
<linearGradient id="paint15_linear_7573_1474" x1="45.9281" y1="18.4435" x2="45.4592" y2="19.3268" gradientUnits="userSpaceOnUse">
<stop stop-color="#1260BA"/>
<stop offset="1" stop-color="#B0D1F7"/>
</linearGradient>
<linearGradient id="paint16_linear_7573_1474" x1="42.4964" y1="55.97" x2="42.0534" y2="89.4395" gradientUnits="userSpaceOnUse">
<stop stop-color="#057CC3"/>
<stop offset="1" stop-color="#055381"/>
</linearGradient>
<linearGradient id="paint17_linear_7573_1474" x1="81.0173" y1="22.4951" x2="81.0173" y2="89.4448" gradientUnits="userSpaceOnUse">
<stop stop-color="#1260BA"/>
<stop offset="1" stop-color="#B0D1F7"/>
</linearGradient>
</defs>
</svg>
