<svg width="24" height="25" viewBox="0 0 24 25" fill="none" xmlns="http://www.w3.org/2000/svg">
<g id="iconmonstr-twitter-1" clip-path="url(#clip0_4795_13202)">
<path id="Vector" d="M24 4.93986C23.117 5.33186 22.168 5.59586 21.172 5.71486C22.189 5.10586 22.97 4.14086 23.337 2.99086C22.386 3.55486 21.332 3.96486 20.21 4.18586C19.313 3.22886 18.032 2.63086 16.616 2.63086C13.437 2.63086 11.101 5.59686 11.819 8.67586C7.728 8.47086 4.1 6.51086 1.671 3.53186C0.381 5.74486 1.002 8.63986 3.194 10.1059C2.388 10.0799 1.628 9.85886 0.965 9.48986C0.911 11.7709 2.546 13.9049 4.914 14.3799C4.221 14.5679 3.462 14.6119 2.69 14.4639C3.316 16.4199 5.134 17.8429 7.29 17.8829C5.22 19.5059 2.612 20.2309 0 19.9229C2.179 21.3199 4.768 22.1349 7.548 22.1349C16.69 22.1349 21.855 14.4139 21.543 7.48886C22.505 6.79386 23.34 5.92686 24 4.93986Z" fill="#0045A5"/>
</g>
<defs>
<clipPath id="clip0_4795_13202">
<rect width="24" height="24" fill="white" transform="translate(0 0.382812)"/>
</clipPath>
</defs>
</svg>
