<svg width="24" height="25" viewBox="0 0 24 25" fill="none" xmlns="http://www.w3.org/2000/svg">
<g id="iconmonstr-instagram-11" clip-path="url(#clip0_4795_13207)">
<path id="Vector" d="M12 2.54581C15.204 2.54581 15.584 2.55781 16.85 2.61581C20.102 2.76381 21.621 4.30681 21.769 7.53481C21.827 8.79981 21.838 9.17981 21.838 12.3838C21.838 15.5888 21.826 15.9678 21.769 17.2328C21.62 20.4578 20.105 22.0038 16.85 22.1518C15.584 22.2098 15.206 22.2218 12 22.2218C8.796 22.2218 8.416 22.2098 7.151 22.1518C3.891 22.0028 2.38 20.4528 2.232 17.2318C2.174 15.9668 2.162 15.5878 2.162 12.3828C2.162 9.17881 2.175 8.79981 2.232 7.53381C2.381 4.30681 3.896 2.76281 7.151 2.61481C8.417 2.55781 8.796 2.54581 12 2.54581ZM12 0.382813C8.741 0.382813 8.333 0.396812 7.053 0.454812C2.695 0.654813 0.273 3.07281 0.073 7.43481C0.014 8.71581 0 9.12381 0 12.3828C0 15.6418 0.014 16.0508 0.072 17.3308C0.272 21.6888 2.69 24.1108 7.052 24.3108C8.333 24.3688 8.741 24.3828 12 24.3828C15.259 24.3828 15.668 24.3688 16.948 24.3108C21.302 24.1108 23.73 21.6928 23.927 17.3308C23.986 16.0508 24 15.6418 24 12.3828C24 9.12381 23.986 8.71581 23.928 7.43581C23.732 3.08181 21.311 0.655813 16.949 0.455812C15.668 0.396812 15.259 0.382813 12 0.382813ZM12 6.22081C8.597 6.22081 5.838 8.97981 5.838 12.3828C5.838 15.7858 8.597 18.5458 12 18.5458C15.403 18.5458 18.162 15.7868 18.162 12.3828C18.162 8.97981 15.403 6.22081 12 6.22081ZM12 16.3828C9.791 16.3828 8 14.5928 8 12.3828C8 10.1738 9.791 8.38281 12 8.38281C14.209 8.38281 16 10.1738 16 12.3828C16 14.5928 14.209 16.3828 12 16.3828ZM18.406 4.53781C17.61 4.53781 16.965 5.18281 16.965 5.97781C16.965 6.77281 17.61 7.41781 18.406 7.41781C19.201 7.41781 19.845 6.77281 19.845 5.97781C19.845 5.18281 19.201 4.53781 18.406 4.53781Z" fill="#0045A5"/>
</g>
<defs>
<clipPath id="clip0_4795_13207">
<rect width="24" height="24" fill="white" transform="translate(0 0.382812)"/>
</clipPath>
</defs>
</svg>
