<svg width="97" height="90" viewBox="0 0 97 90" fill="none" xmlns="http://www.w3.org/2000/svg">
<g id="Frame 513324">
<g id="Vector 388">
<path d="M49.5 42.5L87.5 23.5V66.5L49.5 88L12 67.5V23.5L49.5 42.5Z" fill="#041634"/>
<path d="M49.5 42.5L87.5 23.5V66.5L49.5 88M49.5 42.5V88M49.5 42.5L12 23.5V67.5L49.5 88" stroke="#041634"/>
</g>
<path id="Vector 387" d="M49.5 1.5L12.5 23.5L49.5 43.5L86.5 23.5L49.5 1.5Z" fill="#041634" stroke="#041634"/>
<g id="Group 513285">
<g id="Group 513280">
<path id="Line 1739" d="M31.1295 84.9881C30.2368 83.6874 28.4586 83.3566 27.1579 84.2493C25.8571 85.1421 25.5264 86.9202 26.4191 88.2209C27.3118 89.5217 29.09 89.8524 30.3907 88.9597C31.6915 88.067 32.0222 86.2888 31.1295 84.9881ZM36.275 80.8069L28.4712 86.1629L29.0774 87.0461L36.8812 81.6901L36.275 80.8069Z" fill="url(#paint0_linear_7437_5619)"/>
<path id="Line 1737" d="M18.8834 77.6517C17.9907 76.3509 16.2125 76.0202 14.9118 76.9129C13.6111 77.8056 13.2803 79.5838 14.173 80.8845C15.0658 82.1852 16.8439 82.516 18.1446 81.6233C19.4454 80.7305 19.7761 78.9524 18.8834 77.6517ZM24.029 73.4705L16.2251 78.8265L16.8313 79.7097L24.6351 74.3537L24.029 73.4705Z" fill="url(#paint1_linear_7437_5619)"/>
<path id="Line 1738" d="M7.56308 72.1336C6.67035 70.8329 4.8922 70.5021 3.59147 71.3948C2.29074 72.2876 1.95999 74.0657 2.85271 75.3664C3.74544 76.6672 5.52359 76.9979 6.82432 76.1052C8.12505 75.2125 8.4558 73.4343 7.56308 72.1336ZM12.7086 67.9524L4.90482 73.3084L5.51098 74.1916L13.3148 68.8356L12.7086 67.9524Z" fill="url(#paint2_linear_7437_5619)"/>
</g>
<g id="Group 513281">
<path id="Line 1739_2" d="M91.9459 72.1826C90.8416 73.3093 90.8596 75.1178 91.9863 76.2221C93.1129 77.3265 94.9215 77.3084 96.0258 76.1818C97.1301 75.0552 97.1121 73.2466 95.9854 72.1423C94.8588 71.0379 93.0502 71.056 91.9459 72.1826ZM86.8516 67.9391L93.6109 74.5647L94.3608 73.7997L87.6015 67.1742L86.8516 67.9391Z" fill="url(#paint3_linear_7437_5619)"/>
<path id="Line 1740" d="M81.2311 78.5386C80.1267 79.6652 80.1448 81.4738 81.2714 82.5781C82.3981 83.6824 84.2066 83.6644 85.311 82.5377C86.4153 81.4111 86.3972 79.6026 85.2706 78.4982C84.144 77.3939 82.3354 77.4119 81.2311 78.5386ZM76.1368 74.2951L82.8961 80.9207L83.6459 80.1557L76.8866 73.5301L76.1368 74.2951Z" fill="url(#paint4_linear_7437_5619)"/>
<path id="Line 1741" d="M69.4498 84.9658C68.3455 86.0925 68.3635 87.901 69.4902 89.0054C70.6168 90.1097 72.4254 90.0916 73.5297 88.965C74.634 87.8384 74.616 86.0298 73.4893 84.9255C72.3627 83.8211 70.5542 83.8392 69.4498 84.9658ZM64.3555 80.7223L71.1148 87.3479L71.8647 86.5829L65.1054 79.9574L64.3555 80.7223Z" fill="url(#paint5_linear_7437_5619)"/>
</g>
<g id="Group 513284">
<path id="Line 1742" d="M6.73902 20.7371C5.88073 22.2454 3.96226 22.7723 2.45399 21.914C0.945727 21.0557 0.418813 19.1372 1.2771 17.629C2.13538 16.1207 4.05385 15.5938 5.56212 16.4521C7.07039 17.3104 7.5973 19.2288 6.73902 20.7371ZM11.943 24.3763L3.71667 19.6951L4.29944 18.671L12.5258 23.3522L11.943 24.3763Z" fill="url(#paint6_linear_7437_5619)"/>
<path id="Line 1743" d="M7.67366 43.9945C6.75265 45.2754 4.96768 45.5671 3.68682 44.6461C2.40597 43.7251 2.11425 41.9401 3.03526 40.6592C3.95628 39.3784 5.74124 39.0867 7.0221 40.0077C8.30296 40.9287 8.59468 42.7136 7.67366 43.9945ZM12.7264 48.2874L5.04178 42.7617L5.66715 41.892L13.3517 47.4177L12.7264 48.2874Z" fill="url(#paint7_linear_7437_5619)"/>
</g>
<g id="Group 513282">
<path id="Line 1744" d="M91.2499 20.0723C90.2217 18.6743 90.5216 16.7075 91.9196 15.6794C93.3176 14.6512 95.2844 14.951 96.3125 16.349C97.3407 17.7471 97.0408 19.7138 95.6428 20.742C94.2448 21.7701 92.278 21.4703 91.2499 20.0723ZM85.8072 23.3437L93.4322 17.7361L94.1303 18.6853L86.5053 24.293L85.8072 23.3437Z" fill="url(#paint8_linear_7437_5619)"/>
<path id="Line 1745" d="M91.1273 45.077C90.4879 43.6348 91.1388 41.9473 92.581 41.3079C94.0232 40.6685 95.7107 41.3193 96.3501 42.7616C96.9895 44.2038 96.3387 45.8913 94.8964 46.5307C93.4542 47.1701 91.7667 46.5192 91.1273 45.077ZM84.8689 47.2657L93.5216 43.4296L93.9558 44.4089L85.303 48.245L84.8689 47.2657Z" fill="url(#paint9_linear_7437_5619)"/>
</g>
<path id="Rectangle 4752" d="M11.1738 22.4951L49.7381 0.000219905L49.7381 4.28517L14.3901 24.6377L11.1738 22.4951Z" fill="url(#paint10_linear_7437_5619)"/>
<path id="Rectangle 4753" d="M49.7387 0L88.3017 22.4951L86.1594 24.6375L49.2031 4.28478L49.7387 0Z" fill="url(#paint11_linear_7437_5619)"/>
<path id="Rectangle 4754" d="M30.9922 29.9937L50.2737 19.2817V23.0309L34.2058 32.1361L30.9922 29.9937Z" fill="url(#paint12_linear_7437_5619)"/>
<path id="Rectangle 4755" d="M65.8031 32.1359L49.7359 23.4927L49.7359 19.2816L68.4821 29.9935L65.8031 32.1359Z" fill="url(#paint13_linear_7437_5619)"/>
<g id="Group 513283">
<path id="Line 1735" d="M65.1453 18.7832C64.4363 17.3739 62.7191 16.8061 61.3098 17.5151C59.9004 18.2241 59.3327 19.9413 60.0417 21.3506C60.7507 22.76 62.4679 23.3277 63.8772 22.6187C65.2865 21.9098 65.8543 20.1925 65.1453 18.7832ZM70.3023 15.5894L62.3528 19.5885L62.8342 20.5454L70.7837 16.5463L70.3023 15.5894Z" fill="url(#paint14_linear_7437_5619)"/>
<path id="Line 1734" d="M35.3369 19.1903C34.5972 20.5838 35.1273 22.313 36.5207 23.0527C37.9142 23.7923 39.6434 23.2623 40.3831 21.8689C41.1228 20.4754 40.5928 18.7461 39.1993 18.0065C37.8058 17.2668 36.0766 17.7968 35.3369 19.1903ZM29.7489 16.8305L37.6089 21.0027L38.1111 20.0565L30.2511 15.8843L29.7489 16.8305Z" fill="url(#paint15_linear_7437_5619)"/>
</g>
<path id="Vector 385" d="M13.3182 23.5663L33.6709 35.3495V40.1698H35.8133V35.3495L49.7388 43.3834V78.7328V81.9464V89.4448L11.1758 67.4853V61.0581L49.7388 81.9464V78.7328L11.1758 56.7734V52.4886L27.7793 61.0581V58.3801L11.1758 50.3462V45.5258L22.4233 51.4174V48.2038L11.1758 42.3122V35.3495L39.0269 50.3462V48.2038L11.1758 32.6715V22.4951L13.3182 23.5663Z" fill="url(#paint16_linear_7437_5619)"/>
<path id="Vector 386" d="M86.1584 23.5663L65.8057 35.3495V40.1698H63.6633V35.3495L49.7378 43.3834V78.7328V81.9464V89.4448L88.3008 67.4853V61.0581L49.7378 81.9464V78.7328L88.3008 56.7734V52.4886L71.6973 61.0581V58.3801L88.3008 50.3462V45.5258L77.0532 51.4174V48.2038L88.3008 42.3122V35.3495L60.4497 50.3462V48.2038L88.3008 32.6715V22.4951L86.1584 23.5663Z" fill="url(#paint17_linear_7437_5619)"/>
<circle id="Ellipse 2324" cx="49.2019" cy="56.2381" r="8.03396" fill="#041634"/>
</g>
</g>
<defs>
<linearGradient id="paint0_linear_7437_5619" x1="32.6762" y1="83.9265" x2="32.1103" y2="83.102" gradientUnits="userSpaceOnUse">
<stop stop-color="#1260BA"/>
<stop offset="1" stop-color="#B0D1F7"/>
</linearGradient>
<linearGradient id="paint1_linear_7437_5619" x1="20.4301" y1="76.5901" x2="19.8642" y2="75.7656" gradientUnits="userSpaceOnUse">
<stop stop-color="#1260BA"/>
<stop offset="1" stop-color="#B0D1F7"/>
</linearGradient>
<linearGradient id="paint2_linear_7437_5619" x1="9.10981" y1="71.072" x2="8.54394" y2="70.2475" gradientUnits="userSpaceOnUse">
<stop stop-color="#1260BA"/>
<stop offset="1" stop-color="#B0D1F7"/>
</linearGradient>
<linearGradient id="paint3_linear_7437_5619" x1="90.6062" y1="70.8694" x2="89.9062" y2="71.5836" gradientUnits="userSpaceOnUse">
<stop stop-color="#1260BA"/>
<stop offset="1" stop-color="#B0D1F7"/>
</linearGradient>
<linearGradient id="paint4_linear_7437_5619" x1="79.8914" y1="77.2254" x2="79.1914" y2="77.9395" gradientUnits="userSpaceOnUse">
<stop stop-color="#1260BA"/>
<stop offset="1" stop-color="#B0D1F7"/>
</linearGradient>
<linearGradient id="paint5_linear_7437_5619" x1="68.1101" y1="83.6526" x2="67.4101" y2="84.3668" gradientUnits="userSpaceOnUse">
<stop stop-color="#1260BA"/>
<stop offset="1" stop-color="#B0D1F7"/>
</linearGradient>
<linearGradient id="paint6_linear_7437_5619" x1="8.12122" y1="21.5236" x2="7.62663" y2="22.3928" gradientUnits="userSpaceOnUse">
<stop stop-color="#1260BA"/>
<stop offset="1" stop-color="#B0D1F7"/>
</linearGradient>
<linearGradient id="paint7_linear_7437_5619" x1="9.19676" y1="45.0897" x2="8.61296" y2="45.9016" gradientUnits="userSpaceOnUse">
<stop stop-color="#1260BA"/>
<stop offset="1" stop-color="#B0D1F7"/>
</linearGradient>
<linearGradient id="paint8_linear_7437_5619" x1="89.9687" y1="21.0145" x2="89.3763" y2="20.2089" gradientUnits="userSpaceOnUse">
<stop stop-color="#1260BA"/>
<stop offset="1" stop-color="#B0D1F7"/>
</linearGradient>
<linearGradient id="paint9_linear_7437_5619" x1="89.4123" y1="45.8373" x2="89.007" y2="44.9231" gradientUnits="userSpaceOnUse">
<stop stop-color="#1260BA"/>
<stop offset="1" stop-color="#B0D1F7"/>
</linearGradient>
<linearGradient id="paint10_linear_7437_5619" x1="28.9452" y1="6.08629" x2="32.7981" y2="19.2497" gradientUnits="userSpaceOnUse">
<stop stop-color="#1260BA"/>
<stop offset="1" stop-color="#B0D1F7"/>
</linearGradient>
<linearGradient id="paint11_linear_7437_5619" x1="68.7941" y1="12.3187" x2="68.7349" y2="24.6374" gradientUnits="userSpaceOnUse">
<stop stop-color="#057CC3"/>
<stop offset="1" stop-color="#055381"/>
</linearGradient>
<linearGradient id="paint12_linear_7437_5619" x1="40.6535" y1="25.7089" x2="40.6208" y2="32.136" gradientUnits="userSpaceOnUse">
<stop stop-color="#057CC3"/>
<stop offset="1" stop-color="#055381"/>
</linearGradient>
<linearGradient id="paint13_linear_7437_5619" x1="53.4611" y1="28.7573" x2="62.8877" y2="22.0872" gradientUnits="userSpaceOnUse">
<stop stop-color="#1260BA"/>
<stop offset="1" stop-color="#B0D1F7"/>
</linearGradient>
<linearGradient id="paint14_linear_7437_5619" x1="66.5682" y1="18.0674" x2="66.1188" y2="17.1741" gradientUnits="userSpaceOnUse">
<stop stop-color="#1260BA"/>
<stop offset="1" stop-color="#B0D1F7"/>
</linearGradient>
<linearGradient id="paint15_linear_7437_5619" x1="33.93" y1="18.4435" x2="33.4612" y2="19.3268" gradientUnits="userSpaceOnUse">
<stop stop-color="#1260BA"/>
<stop offset="1" stop-color="#B0D1F7"/>
</linearGradient>
<linearGradient id="paint16_linear_7437_5619" x1="30.4984" y1="55.97" x2="30.0553" y2="89.4395" gradientUnits="userSpaceOnUse">
<stop stop-color="#057CC3"/>
<stop offset="1" stop-color="#055381"/>
</linearGradient>
<linearGradient id="paint17_linear_7437_5619" x1="69.0193" y1="22.4951" x2="69.0193" y2="89.4448" gradientUnits="userSpaceOnUse">
<stop stop-color="#1260BA"/>
<stop offset="1" stop-color="#B0D1F7"/>
</linearGradient>
</defs>
</svg>
